<?xml version="1.0" encoding="UTF-8"?>
<svg width="550px" height="126px" viewBox="0 0 550 126" version="1.1" xmlns="http://www.w3.org/2000/svg" xmlns:xlink="http://www.w3.org/1999/xlink">
    <!-- Generator: Sketch 49.3 (51167) - http://www.bohemiancoding.com/sketch -->
    <title>default</title>
    <desc>Created with Sketch.</desc>
    <defs>
        <filter x="-3.8%" y="-15.4%" width="107.5%" height="133.0%" filterUnits="objectBoundingBox" id="filter-1">
            <feOffset dx="0" dy="1" in="SourceAlpha" result="shadowOffsetOuter1"></feOffset>
            <feGaussianBlur stdDeviation="5" in="shadowOffsetOuter1" result="shadowBlurOuter1"></feGaussianBlur>
            <feColorMatrix values="0 0 0 0 0   0 0 0 0 0   0 0 0 0 0  0 0 0 0.16 0" type="matrix" in="shadowBlurOuter1" result="shadowMatrixOuter1"></feColorMatrix>
            <feMerge>
                <feMergeNode in="shadowMatrixOuter1"></feMergeNode>
                <feMergeNode in="SourceGraphic"></feMergeNode>
            </feMerge>
        </filter>
    </defs>
    <g id="default" stroke="none" stroke-width="1" fill="none" fill-rule="evenodd">
        <g id="notification" filter="url(#filter-1)" transform="translate(69.000000, 16.000000)">
            <rect id="Rectangle" fill="#FFFFFF" x="0" y="0" width="412" height="94"></rect>
            <g id="notification/header" transform="translate(16.000000, 16.000000)">
                <path d="M68.8457031,6.66015625 L68.8808594,7.45703125 C69.3652368,6.8476532 69.998043,6.54296875 70.7792969,6.54296875 C72.1191473,6.54296875 72.7949218,7.29882057 72.8066406,8.81054688 L72.8066406,13 L71.7226562,13 L71.7226562,8.8046875 C71.71875,8.34765396 71.6142588,8.00976672 71.4091797,7.79101562 C71.2041005,7.57226453 70.8847678,7.46289062 70.4511719,7.46289062 C70.0996076,7.46289062 69.791017,7.55663969 69.5253906,7.74414062 C69.2597643,7.93164156 69.0527351,8.17773285 68.9042969,8.48242188 L68.9042969,13 L67.8203125,13 L67.8203125,6.66015625 L68.8457031,6.66015625 Z M74.1542969,9.77148438 C74.1542969,9.15038752 74.276366,8.59179936 74.5205078,8.09570312 C74.7646497,7.59960689 75.10449,7.21679822 75.5400391,6.94726562 C75.9755881,6.67773303 76.4726535,6.54296875 77.03125,6.54296875 C77.8945356,6.54296875 78.5927708,6.84179389 79.1259766,7.43945312 C79.6591824,8.03711236 79.9257812,8.83202629 79.9257812,9.82421875 L79.9257812,9.90039062 C79.9257812,10.5175812 79.8076184,11.0712866 79.5712891,11.5615234 C79.3349598,12.0517603 78.9970725,12.4335924 78.5576172,12.7070312 C78.1181619,12.9804701 77.6132841,13.1171875 77.0429688,13.1171875 C76.1835895,13.1171875 75.4873074,12.8183624 74.9541016,12.2207031 C74.4208958,11.6230439 74.1542969,10.8320362 74.1542969,9.84765625 L74.1542969,9.77148438 Z M75.2441406,9.90039062 C75.2441406,10.6035191 75.4072249,11.1679666 75.7333984,11.59375 C76.0595719,12.0195334 76.496091,12.2324219 77.0429688,12.2324219 C77.5937528,12.2324219 78.0312484,12.0166037 78.3554688,11.5849609 C78.6796891,11.1533182 78.8417969,10.548832 78.8417969,9.77148438 C78.8417969,9.0761684 78.6767595,8.51269747 78.3466797,8.08105469 C78.0165999,7.6494119 77.5781277,7.43359375 77.03125,7.43359375 C76.4960911,7.43359375 76.0644548,7.64648225 75.7363281,8.07226562 C75.4082015,8.498049 75.2441406,9.10741791 75.2441406,9.90039062 Z M86.8984375,11.5058594 L88.1171875,6.66015625 L89.2011719,6.66015625 L87.3554688,13 L86.4765625,13 L84.9355469,8.1953125 L83.4355469,13 L82.5566406,13 L80.7167969,6.66015625 L81.7949219,6.66015625 L83.0429688,11.40625 L84.5195312,6.66015625 L85.3925781,6.66015625 L86.8984375,11.5058594 Z" id="now" fill="#757575"></path>
                <circle id="Oval" fill="#757575" cx="62" cy="10" r="1"></circle>
                <g id="none" transform="translate(94.000000, 8.000000)"></g>
                <path d="M31.546875,13 L30.4160156,13 L26.1210938,6.42578125 L26.1210938,13 L24.9902344,13 L24.9902344,4.46875 L26.1210938,4.46875 L30.4277344,11.0722656 L30.4277344,4.46875 L31.546875,4.46875 L31.546875,13 Z M33.0878906,9.77148438 C33.0878906,9.15038752 33.2099597,8.59179936 33.4541016,8.09570312 C33.6982434,7.59960689 34.0380838,7.21679822 34.4736328,6.94726562 C34.9091819,6.67773303 35.4062472,6.54296875 35.9648438,6.54296875 C36.8281293,6.54296875 37.5263645,6.84179389 38.0595703,7.43945312 C38.5927761,8.03711236 38.859375,8.83202629 38.859375,9.82421875 L38.859375,9.90039062 C38.859375,10.5175812 38.7412121,11.0712866 38.5048828,11.5615234 C38.2685535,12.0517603 37.9306663,12.4335924 37.4912109,12.7070312 C37.0517556,12.9804701 36.5468779,13.1171875 35.9765625,13.1171875 C35.1171832,13.1171875 34.4209011,12.8183624 33.8876953,12.2207031 C33.3544895,11.6230439 33.0878906,10.8320362 33.0878906,9.84765625 L33.0878906,9.77148438 Z M34.1777344,9.90039062 C34.1777344,10.6035191 34.3408187,11.1679666 34.6669922,11.59375 C34.9931657,12.0195334 35.4296848,12.2324219 35.9765625,12.2324219 C36.5273465,12.2324219 36.9648421,12.0166037 37.2890625,11.5849609 C37.6132829,11.1533182 37.7753906,10.548832 37.7753906,9.77148438 C37.7753906,9.0761684 37.6103532,8.51269747 37.2802734,8.08105469 C36.9501937,7.6494119 36.5117215,7.43359375 35.9648438,7.43359375 C35.4296848,7.43359375 34.9980485,7.64648225 34.6699219,8.07226562 C34.3417952,8.498049 34.1777344,9.10741791 34.1777344,9.90039062 Z M41.6894531,5.125 L41.6894531,6.66015625 L42.8730469,6.66015625 L42.8730469,7.49804688 L41.6894531,7.49804688 L41.6894531,11.4296875 C41.6894531,11.683595 41.742187,11.8740228 41.8476562,12.0009766 C41.9531255,12.1279303 42.1328112,12.1914062 42.3867188,12.1914062 C42.5117194,12.1914062 42.6835927,12.167969 42.9023438,12.1210938 L42.9023438,13 C42.6171861,13.0781254 42.3398451,13.1171875 42.0703125,13.1171875 C41.5859351,13.1171875 41.2207044,12.9707046 40.9746094,12.6777344 C40.7285144,12.3847642 40.6054688,11.9687527 40.6054688,11.4296875 L40.6054688,7.49804688 L39.4511719,7.49804688 L39.4511719,6.66015625 L40.6054688,6.66015625 L40.6054688,5.125 L41.6894531,5.125 Z M45.3164062,13 L44.2324219,13 L44.2324219,6.66015625 L45.3164062,6.66015625 L45.3164062,13 Z M44.1445312,4.97851562 C44.1445312,4.8027335 44.1982417,4.65429748 44.3056641,4.53320312 C44.4130865,4.41210877 44.5722646,4.3515625 44.7832031,4.3515625 C44.9941417,4.3515625 45.1542963,4.41210877 45.2636719,4.53320312 C45.3730474,4.65429748 45.4277344,4.8027335 45.4277344,4.97851562 C45.4277344,5.15429775 45.3730474,5.30078066 45.2636719,5.41796875 C45.1542963,5.53515684 44.9941417,5.59375 44.7832031,5.59375 C44.5722646,5.59375 44.4130865,5.53515684 44.3056641,5.41796875 C44.1982417,5.30078066 44.1445312,5.15429775 44.1445312,4.97851562 Z M47.5839844,13 L47.5839844,7.49804688 L46.5820312,7.49804688 L46.5820312,6.66015625 L47.5839844,6.66015625 L47.5839844,6.00976562 C47.5839844,5.33007473 47.7656232,4.80468936 48.1289062,4.43359375 C48.4921893,4.06249814 49.0058561,3.87695312 49.6699219,3.87695312 C49.9199231,3.87695312 50.1679675,3.91015592 50.4140625,3.9765625 L50.3554688,4.85546875 C50.1718741,4.82031232 49.9765635,4.80273438 49.7695312,4.80273438 C49.417967,4.80273438 49.1464853,4.90527241 48.9550781,5.11035156 C48.7636709,5.31543071 48.6679688,5.60937309 48.6679688,5.9921875 L48.6679688,6.66015625 L50.0214844,6.66015625 L50.0214844,7.49804688 L48.6679688,7.49804688 L48.6679688,13 L47.5839844,13 Z M53.2910156,11.4121094 L54.7675781,6.66015625 L55.9277344,6.66015625 L53.3789062,13.9785156 C52.984373,15.0332084 52.3574262,15.5605469 51.4980469,15.5605469 L51.2929688,15.5429687 L50.8886719,15.4667969 L50.8886719,14.5878906 L51.1816406,14.6113281 C51.54883,14.6113281 51.8349599,14.5371101 52.0400391,14.3886719 C52.2451182,14.2402336 52.4140618,13.968752 52.546875,13.5742187 L52.7871094,12.9296875 L50.5253906,6.66015625 L51.7089844,6.66015625 L53.2910156,11.4121094 Z" id="Notify" fill="#4A90E2"></path>
                <g id="app_icon" fill="#4A90E2">
                    <g id="ic_notifications">
                        <path d="M9,16 C9.825,16 10.5,15.55 10.5,15 L7.5,15 C7.5,15.55 8.175,16 9,16 L9,16 Z M13.5882353,11.8823529 L13.5882353,8 C13.5882353,5.83294118 12.0847059,4.01882353 10.0588235,3.53882353 L10.0588235,3.05882353 C10.0588235,2.47294118 9.58588235,2 9,2 C8.41411765,2 7.94117647,2.47294118 7.94117647,3.05882353 L7.94117647,3.53882353 C5.91529412,4.01882353 4.41176471,5.83294118 4.41176471,8 L4.41176471,11.8823529 L3,13.2941176 L3,14 L15,14 L15,13.2941176 L13.5882353,11.8823529 L13.5882353,11.8823529 Z" id="Shape"></path>
                    </g>
                </g>
            </g>
            <g id="content" transform="translate(16.000000, 42.000000)">
                <path d="M8.8046875,13 L7.48535156,13 L2.47460938,5.33007812 L2.47460938,13 L1.15527344,13 L1.15527344,3.046875 L2.47460938,3.046875 L7.49902344,10.7509766 L7.49902344,3.046875 L8.8046875,3.046875 L8.8046875,13 Z M14.1068359,13.1367188 C13.1042268,13.1367188 12.2884797,12.8074577 11.6595703,12.1489258 C11.0306609,11.4903938 10.7162109,10.609706 10.7162109,9.50683594 L10.7162109,9.27441406 C10.7162109,8.54068644 10.8563463,7.88558231 11.1366211,7.30908203 C11.4168959,6.73258175 11.8088191,6.28141439 12.3124023,5.95556641 C12.8159856,5.62971842 13.3617158,5.46679688 13.9496094,5.46679688 C14.9112027,5.46679688 15.6585911,5.78352548 16.1917969,6.41699219 C16.7250027,7.0504589 16.9916016,7.95735087 16.9916016,9.13769531 L16.9916016,9.6640625 L11.9808594,9.6640625 C11.9990886,10.3932328 12.2121399,10.9822569 12.6200195,11.4311523 C13.0278992,11.8800478 13.5462859,12.1044922 14.1751953,12.1044922 C14.6218121,12.1044922 15.0000636,12.0133473 15.3099609,11.8310547 C15.6198583,11.6487621 15.8910145,11.4072281 16.1234375,11.1064453 L16.8958984,11.7080078 C16.2761037,12.6604865 15.3464255,13.1367188 14.1068359,13.1367188 Z M13.9496094,6.50585938 C13.4391902,6.50585938 13.010809,6.69156715 12.6644531,7.06298828 C12.3180972,7.43440941 12.1039067,7.95507478 12.021875,8.625 L15.7269531,8.625 L15.7269531,8.52929688 C15.6904946,7.88671554 15.5173193,7.3888364 15.2074219,7.03564453 C14.8975245,6.68245266 14.4782579,6.50585938 13.9496094,6.50585938 Z M25.1033203,11.2568359 L26.5251953,5.60351562 L27.7898438,5.60351562 L25.6365234,13 L24.6111328,13 L22.8132813,7.39453125 L21.0632813,13 L20.0378906,13 L17.8914063,5.60351562 L19.1492188,5.60351562 L20.6052734,11.140625 L22.3279297,5.60351562 L23.3464844,5.60351562 L25.1033203,11.2568359 Z M32.4332031,9.24023438 C32.4332031,8.10546308 32.7020807,7.19287455 33.2398438,6.50244141 C33.7776069,5.81200827 34.4817014,5.46679688 35.3521484,5.46679688 C36.2180382,5.46679688 36.9039037,5.76301787 37.4097656,6.35546875 L37.4097656,2.5 L38.6744141,2.5 L38.6744141,13 L37.5123047,13 L37.4507813,12.2070312 C36.9449194,12.826826 36.2408248,13.1367188 35.3384766,13.1367188 C34.4817015,13.1367188 33.7833035,12.7858108 33.2432617,12.0839844 C32.70322,11.3821579 32.4332031,10.4661515 32.4332031,9.3359375 L32.4332031,9.24023438 Z M33.6978516,9.38378906 C33.6978516,10.2223349 33.8710269,10.8785784 34.2173828,11.3525391 C34.5637387,11.8264998 35.0422496,12.0634766 35.6529297,12.0634766 C36.455017,12.0634766 37.0406232,11.7034541 37.4097656,10.9833984 L37.4097656,7.5859375 C37.0315085,6.88866839 36.4504597,6.54003906 35.6666016,6.54003906 C35.0468068,6.54003906 34.5637387,6.77929448 34.2173828,7.2578125 C33.8710269,7.73633052 33.6978516,8.44498229 33.6978516,9.38378906 Z M43.8056641,13.1367188 C42.8030549,13.1367188 41.9873078,12.8074577 41.3583984,12.1489258 C40.7294891,11.4903938 40.4150391,10.609706 40.4150391,9.50683594 L40.4150391,9.27441406 C40.4150391,8.54068644 40.5551744,7.88558231 40.8354492,7.30908203 C41.1157241,6.73258175 41.5076472,6.28141439 42.0112305,5.95556641 C42.5148137,5.62971842 43.0605439,5.46679688 43.6484375,5.46679688 C44.6100309,5.46679688 45.3574192,5.78352548 45.890625,6.41699219 C46.4238308,7.0504589 46.6904297,7.95735087 46.6904297,9.13769531 L46.6904297,9.6640625 L41.6796875,9.6640625 C41.6979168,10.3932328 41.910968,10.9822569 42.3188477,11.4311523 C42.7267273,11.8800478 43.2451141,12.1044922 43.8740234,12.1044922 C44.3206403,12.1044922 44.6988917,12.0133473 45.0087891,11.8310547 C45.3186865,11.6487621 45.5898426,11.4072281 45.8222656,11.1064453 L46.5947266,11.7080078 C45.9749318,12.6604865 45.0452536,13.1367188 43.8056641,13.1367188 Z M43.6484375,6.50585938 C43.1380183,6.50585938 42.7096372,6.69156715 42.3632813,7.06298828 C42.0169254,7.43440941 41.8027348,7.95507478 41.7207031,8.625 L45.4257813,8.625 L45.4257813,8.52929688 C45.3893227,7.88671554 45.2161474,7.3888364 44.90625,7.03564453 C44.5963526,6.68245266 44.177086,6.50585938 43.6484375,6.50585938 Z M52.5599609,11.0380859 C52.5599609,10.6962874 52.4312187,10.4308278 52.1737305,10.2416992 C51.9162422,10.0525707 51.4673535,9.88964912 50.8270508,9.75292969 C50.1867481,9.61621025 49.6786152,9.45214939 49.3026367,9.26074219 C48.9266583,9.06933498 48.6486663,8.84147268 48.4686524,8.57714844 C48.2886384,8.3128242 48.1986328,7.99837422 48.1986328,7.63378906 C48.1986328,7.02766624 48.4549779,6.51497605 48.9676758,6.09570312 C49.4803737,5.6764302 50.1354778,5.46679688 50.9330078,5.46679688 C51.7715537,5.46679688 52.4517227,5.68326606 52.9735352,6.11621094 C53.4953477,6.54915581 53.75625,7.10286121 53.75625,7.77734375 L52.4847656,7.77734375 C52.4847656,7.43098785 52.3377944,7.13248823 52.0438477,6.88183594 C51.7499009,6.63118364 51.3796246,6.50585938 50.9330078,6.50585938 C50.4727191,6.50585938 50.1126966,6.60611879 49.8529297,6.80664062 C49.5931628,7.00716246 49.4632813,7.26920411 49.4632813,7.59277344 C49.4632813,7.89811351 49.5840483,8.12825443 49.8255859,8.28320312 C50.0671236,8.43815182 50.5034799,8.58626231 51.134668,8.72753906 C51.765856,8.86881581 52.2774069,9.03743392 52.6693359,9.23339844 C53.061265,9.42936296 53.3517894,9.66520044 53.540918,9.94091797 C53.7300465,10.2166355 53.8246094,10.5527324 53.8246094,10.9492188 C53.8246094,11.6100293 53.5602891,12.1398092 53.0316406,12.5385742 C52.5029922,12.9373392 51.8171266,13.1367188 50.9740234,13.1367188 C50.3815726,13.1367188 49.8574893,13.0319021 49.4017578,12.8222656 C48.9460264,12.6126292 48.5894219,12.3198261 48.3319336,11.9438477 C48.0744453,11.5678692 47.9457031,11.161135 47.9457031,10.7236328 L49.2103516,10.7236328 C49.2331381,11.1474631 49.4028956,11.48356 49.7196289,11.7319336 C50.0363623,11.9803072 50.4544896,12.1044922 50.9740234,12.1044922 C51.4525415,12.1044922 51.8364894,12.0076507 52.1258789,11.8139648 C52.4152684,11.620279 52.5599609,11.3616553 52.5599609,11.0380859 Z M59.8787109,11.0380859 C59.8787109,10.6962874 59.7499687,10.4308278 59.4924805,10.2416992 C59.2349922,10.0525707 58.7861035,9.88964912 58.1458008,9.75292969 C57.5054981,9.61621025 56.9973652,9.45214939 56.6213867,9.26074219 C56.2454083,9.06933498 55.9674163,8.84147268 55.7874024,8.57714844 C55.6073884,8.3128242 55.5173828,7.99837422 55.5173828,7.63378906 C55.5173828,7.02766624 55.7737279,6.51497605 56.2864258,6.09570312 C56.7991237,5.6764302 57.4542278,5.46679688 58.2517578,5.46679688 C59.0903037,5.46679688 59.7704727,5.68326606 60.2922852,6.11621094 C60.8140977,6.54915581 61.075,7.10286121 61.075,7.77734375 L59.8035156,7.77734375 C59.8035156,7.43098785 59.6565444,7.13248823 59.3625977,6.88183594 C59.0686509,6.63118364 58.6983746,6.50585938 58.2517578,6.50585938 C57.7914691,6.50585938 57.4314466,6.60611879 57.1716797,6.80664062 C56.9119128,7.00716246 56.7820313,7.26920411 56.7820313,7.59277344 C56.7820313,7.89811351 56.9027983,8.12825443 57.1443359,8.28320312 C57.3858736,8.43815182 57.8222299,8.58626231 58.453418,8.72753906 C59.084606,8.86881581 59.5961569,9.03743392 59.9880859,9.23339844 C60.380015,9.42936296 60.6705394,9.66520044 60.859668,9.94091797 C61.0487965,10.2166355 61.1433594,10.5527324 61.1433594,10.9492188 C61.1433594,11.6100293 60.8790391,12.1398092 60.3503906,12.5385742 C59.8217422,12.9373392 59.1358766,13.1367188 58.2927734,13.1367188 C57.7003226,13.1367188 57.1762393,13.0319021 56.7205078,12.8222656 C56.2647764,12.6126292 55.9081719,12.3198261 55.6506836,11.9438477 C55.3931953,11.5678692 55.2644531,11.161135 55.2644531,10.7236328 L56.5291016,10.7236328 C56.5518881,11.1474631 56.7216456,11.48356 57.0383789,11.7319336 C57.3551123,11.9803072 57.7732396,12.1044922 58.2927734,12.1044922 C58.7712915,12.1044922 59.1552394,12.0076507 59.4446289,11.8139648 C59.7340184,11.620279 59.8787109,11.3616553 59.8787109,11.0380859 Z M65.9601563,13.1367188 C64.9575471,13.1367188 64.1418,12.8074577 63.5128906,12.1489258 C62.8839812,11.4903938 62.5695313,10.609706 62.5695313,9.50683594 L62.5695313,9.27441406 C62.5695313,8.54068644 62.7096666,7.88558231 62.9899414,7.30908203 C63.2702163,6.73258175 63.6621394,6.28141439 64.1657227,5.95556641 C64.6693059,5.62971842 65.2150361,5.46679688 65.8029297,5.46679688 C66.764523,5.46679688 67.5119114,5.78352548 68.0451172,6.41699219 C68.578323,7.0504589 68.8449219,7.95735087 68.8449219,9.13769531 L68.8449219,9.6640625 L63.8341797,9.6640625 C63.852409,10.3932328 64.0654602,10.9822569 64.4733399,11.4311523 C64.8812195,11.8800478 65.3996062,12.1044922 66.0285156,12.1044922 C66.4751325,12.1044922 66.8533839,12.0133473 67.1632813,11.8310547 C67.4731786,11.6487621 67.7443348,11.4072281 67.9767578,11.1064453 L68.7492188,11.7080078 C68.129424,12.6604865 67.1997458,13.1367188 65.9601563,13.1367188 Z M65.8029297,6.50585938 C65.2925105,6.50585938 64.8641293,6.69156715 64.5177734,7.06298828 C64.1714176,7.43440941 63.957227,7.95507478 63.8751953,8.625 L67.5802734,8.625 L67.5802734,8.52929688 C67.5438149,7.88671554 67.3706396,7.3888364 67.0607422,7.03564453 C66.7508448,6.68245266 66.3315782,6.50585938 65.8029297,6.50585938 Z M73.9830078,6.73828125 C73.7916006,6.70638005 73.5842459,6.69042969 73.3609375,6.69042969 C72.5315063,6.69042969 71.9686864,7.04361626 71.672461,7.75 L71.672461,13 L70.4078125,13 L70.4078125,5.60351562 L71.6382813,5.60351562 L71.6587891,6.45800781 C72.0735047,5.79719722 72.6613894,5.46679688 73.422461,5.46679688 C73.6685559,5.46679688 73.855403,5.4986976 73.9830078,5.5625 L73.9830078,6.73828125 Z M77.3027344,3.8125 L77.3027344,5.60351562 L78.6835938,5.60351562 L78.6835938,6.58105469 L77.3027344,6.58105469 L77.3027344,11.1679688 C77.3027344,11.4641942 77.3642572,11.6863599 77.4873047,11.8344727 C77.6103522,11.9825854 77.8199855,12.0566406 78.116211,12.0566406 C78.262045,12.0566406 78.4625638,12.0292971 78.7177735,11.9746094 L78.7177735,13 C78.3850895,13.0911463 78.061525,13.1367188 77.7470703,13.1367188 C77.1819633,13.1367188 76.7558608,12.965822 76.46875,12.6240234 C76.1816392,12.2822249 76.038086,11.7968781 76.038086,11.1679688 L76.038086,6.58105469 L74.6914063,6.58105469 L74.6914063,5.60351562 L76.038086,5.60351562 L76.038086,3.8125 L77.3027344,3.8125 Z M85.0154297,5.60351562 L85.0496094,6.42382812 C85.5919298,5.7858041 86.3233678,5.46679688 87.2439453,5.46679688 C88.2784557,5.46679688 88.9825502,5.86327729 89.35625,6.65625 C89.602345,6.30077947 89.9224915,6.01367297 90.3166992,5.79492188 C90.7109069,5.57617078 91.1768853,5.46679688 91.7146485,5.46679688 C93.3370524,5.46679688 94.1619139,6.32583776 94.1892578,8.04394531 L94.1892578,13 L92.9246094,13 L92.9246094,8.11914062 C92.9246094,7.59049215 92.8038424,7.19515105 92.5623047,6.93310547 C92.320767,6.67105989 91.9151721,6.54003906 91.3455078,6.54003906 C90.8761044,6.54003906 90.4864599,6.68017438 90.1765625,6.96044922 C89.8666651,7.24072406 89.6866539,7.61783617 89.6365235,8.09179688 L89.6365235,13 L88.3650391,13 L88.3650391,8.15332031 C88.3650391,7.0777941 87.8386772,6.54003906 86.7859375,6.54003906 C85.9565063,6.54003906 85.3891291,6.89322563 85.0837891,7.59960938 L85.0837891,13 L83.8191406,13 L83.8191406,5.60351562 L85.0154297,5.60351562 Z M99.2658203,13.1367188 C98.2632112,13.1367188 97.4474641,12.8074577 96.8185547,12.1489258 C96.1896453,11.4903938 95.8751953,10.609706 95.8751953,9.50683594 L95.8751953,9.27441406 C95.8751953,8.54068644 96.0153306,7.88558231 96.2956055,7.30908203 C96.5758803,6.73258175 96.9678035,6.28141439 97.4713867,5.95556641 C97.97497,5.62971842 98.5207002,5.46679688 99.1085938,5.46679688 C100.070187,5.46679688 100.817575,5.78352548 101.350781,6.41699219 C101.883987,7.0504589 102.150586,7.95735087 102.150586,9.13769531 L102.150586,9.6640625 L97.1398438,9.6640625 C97.158073,10.3932328 97.3711243,10.9822569 97.7790039,11.4311523 C98.1868836,11.8800478 98.7052703,12.1044922 99.3341797,12.1044922 C99.7807965,12.1044922 100.159048,12.0133473 100.468945,11.8310547 C100.778843,11.6487621 101.049999,11.4072281 101.282422,11.1064453 L102.054883,11.7080078 C101.435088,12.6604865 100.50541,13.1367188 99.2658203,13.1367188 Z M99.1085938,6.50585938 C98.5981746,6.50585938 98.1697934,6.69156715 97.8234375,7.06298828 C97.4770816,7.43440941 97.2628911,7.95507478 97.1808594,8.625 L100.885938,8.625 L100.885938,8.52929688 C100.849479,7.88671554 100.676304,7.3888364 100.366406,7.03564453 C100.056509,6.68245266 99.6372422,6.50585938 99.1085938,6.50585938 Z M104.909766,5.60351562 L104.950781,6.53320312 C105.515888,5.82226207 106.254162,5.46679688 107.165625,5.46679688 C108.728784,5.46679688 109.517187,6.34862399 109.530859,8.11230469 L109.530859,13 L108.266211,13 L108.266211,8.10546875 C108.261654,7.57226296 108.139747,7.17806117 107.900488,6.92285156 C107.661229,6.66764195 107.288674,6.54003906 106.782813,6.54003906 C106.372654,6.54003906 106.012632,6.64941297 105.702734,6.86816406 C105.392837,7.08691516 105.151303,7.37402166 104.978125,7.72949219 L104.978125,13 L103.713477,13 L103.713477,5.60351562 L104.909766,5.60351562 Z M116.104492,12.2685547 C115.612302,12.8473336 114.889979,13.1367188 113.9375,13.1367188 C113.149085,13.1367188 112.548667,12.9077171 112.13623,12.449707 C111.723794,11.9916969 111.5153,11.3138066 111.510742,10.4160156 L111.510742,5.60351562 L112.775391,5.60351562 L112.775391,10.3818359 C112.775391,11.5029353 113.231115,12.0634766 114.142578,12.0634766 C115.108729,12.0634766 115.751301,11.7034541 116.070313,10.9833984 L116.070313,5.60351562 L117.334961,5.60351562 L117.334961,13 L116.131836,13 L116.104492,12.2685547 Z" id="New-dessert-menu" fill-opacity="0.84" fill="#000000"></path>
                <path d="M8.03222656,24.1269531 L4.83300781,24.1269531 L4.83300781,33 L3.52734375,33 L3.52734375,24.1269531 L0.334960938,24.1269531 L0.334960938,23.046875 L8.03222656,23.046875 L8.03222656,24.1269531 Z M10.5751953,26.4990234 C11.135745,25.810869 11.8649044,25.4667969 12.7626953,25.4667969 C14.3258542,25.4667969 15.1142577,26.348624 15.1279297,28.1123047 L15.1279297,33 L13.8632812,33 L13.8632812,28.1054688 C13.8587239,27.572263 13.7368176,27.1780612 13.4975586,26.9228516 C13.2582996,26.667642 12.8857447,26.5400391 12.3798828,26.5400391 C11.9697245,26.5400391 11.6097021,26.649413 11.2998047,26.8681641 C10.9899073,27.0869152 10.7483733,27.3740217 10.5751953,27.7294922 L10.5751953,33 L9.31054688,33 L9.31054688,22.5 L10.5751953,22.5 L10.5751953,26.4990234 Z M20.0908203,33.1367188 C19.0882111,33.1367188 18.2724641,32.8074577 17.6435547,32.1489258 C17.0146453,31.4903938 16.7001953,30.609706 16.7001953,29.5068359 L16.7001953,29.2744141 C16.7001953,28.5406864 16.8403306,27.8855823 17.1206055,27.309082 C17.4008803,26.7325818 17.7928035,26.2814144 18.2963867,25.9555664 C18.79997,25.6297184 19.3457002,25.4667969 19.9335938,25.4667969 C20.8951871,25.4667969 21.6425755,25.7835255 22.1757812,26.4169922 C22.708987,27.0504589 22.9755859,27.9573509 22.9755859,29.1376953 L22.9755859,29.6640625 L17.9648438,29.6640625 C17.983073,30.3932328 18.1961243,30.9822569 18.6040039,31.4311523 C19.0118835,31.8800478 19.5302703,32.1044922 20.1591797,32.1044922 C20.6057965,32.1044922 20.9840479,32.0133473 21.2939453,31.8310547 C21.6038427,31.6487621 21.8749988,31.4072281 22.1074219,31.1064453 L22.8798828,31.7080078 C22.260088,32.6604865 21.3304098,33.1367188 20.0908203,33.1367188 Z M19.9335938,26.5058594 C19.4231745,26.5058594 18.9947934,26.6915672 18.6484375,27.0629883 C18.3020816,27.4344094 18.087891,27.9550748 18.0058594,28.625 L21.7109375,28.625 L21.7109375,28.5292969 C21.674479,27.8867155 21.5013036,27.3888364 21.1914063,27.0356445 C20.8815089,26.6824527 20.4622422,26.5058594 19.9335938,26.5058594 Z M35.4238281,29.8417969 C35.3007806,30.8945365 34.9122754,31.7068656 34.2583008,32.2788086 C33.6043262,32.8507516 32.7350315,33.1367188 31.6503906,33.1367188 C30.4746035,33.1367188 29.5323929,32.7151735 28.8237305,31.8720703 C28.1150681,31.0289671 27.7607422,29.9010487 27.7607422,28.4882812 L27.7607422,27.53125 C27.7607422,26.6061152 27.9259424,25.7926467 28.2563477,25.0908203 C28.586753,24.3889939 29.05501,23.8500995 29.6611328,23.4741211 C30.2672556,23.0981427 30.9690715,22.9101562 31.7666016,22.9101562 C32.8238985,22.9101562 33.6715463,23.2052379 34.3095703,23.7954102 C34.9475943,24.3855824 35.3190099,25.2024687 35.4238281,26.2460938 L34.1044922,26.2460938 C33.9905593,25.453121 33.7433287,24.878908 33.362793,24.5234375 C32.9822572,24.167967 32.4501987,23.9902344 31.7666016,23.9902344 C30.9280557,23.9902344 30.270673,24.3001271 29.7944336,24.9199219 C29.3181942,25.5397166 29.0800781,26.4215438 29.0800781,27.5654297 L29.0800781,28.5292969 C29.0800781,29.6093804 29.3056618,30.4684213 29.7568359,31.1064453 C30.2080101,31.7444693 30.8391887,32.0634766 31.6503906,32.0634766 C32.3795609,32.0634766 32.9389629,31.8982764 33.3286133,31.5678711 C33.7182637,31.2374658 33.9768874,30.6621135 34.1044922,29.8417969 L35.4238281,29.8417969 Z M38.28125,26.4990234 C38.8417997,25.810869 39.5709591,25.4667969 40.46875,25.4667969 C42.0319089,25.4667969 42.8203124,26.348624 42.8339844,28.1123047 L42.8339844,33 L41.5693359,33 L41.5693359,28.1054688 C41.5647786,27.572263 41.4428723,27.1780612 41.2036133,26.9228516 C40.9643543,26.667642 40.5917994,26.5400391 40.0859375,26.5400391 C39.6757792,26.5400391 39.3157568,26.649413 39.0058594,26.8681641 C38.695962,27.0869152 38.4544279,27.3740217 38.28125,27.7294922 L38.28125,33 L37.0166016,33 L37.0166016,22.5 L38.28125,22.5 L38.28125,26.4990234 Z M47.796875,33.1367188 C46.7942658,33.1367188 45.9785188,32.8074577 45.3496094,32.1489258 C44.7207,31.4903938 44.40625,30.609706 44.40625,29.5068359 L44.40625,29.2744141 C44.40625,28.5406864 44.5463853,27.8855823 44.8266602,27.309082 C45.106935,26.7325818 45.4988582,26.2814144 46.0024414,25.9555664 C46.5060247,25.6297184 47.0517549,25.4667969 47.6396484,25.4667969 C48.6012418,25.4667969 49.3486301,25.7835255 49.8818359,26.4169922 C50.4150417,27.0504589 50.6816406,27.9573509 50.6816406,29.1376953 L50.6816406,29.6640625 L45.6708984,29.6640625 C45.6891277,30.3932328 45.902179,30.9822569 46.3100586,31.4311523 C46.7179382,31.8800478 47.236325,32.1044922 47.8652344,32.1044922 C48.3118512,32.1044922 48.6901026,32.0133473 49,31.8310547 C49.3098974,31.6487621 49.5810535,31.4072281 49.8134766,31.1064453 L50.5859375,31.7080078 C49.9661427,32.6604865 49.0364645,33.1367188 47.796875,33.1367188 Z M47.6396484,26.5058594 C47.1292292,26.5058594 46.7008481,26.6915672 46.3544922,27.0629883 C46.0081363,27.4344094 45.7939457,27.9550748 45.7119141,28.625 L49.4169922,28.625 L49.4169922,28.5292969 C49.3805337,27.8867155 49.2073583,27.3888364 48.8974609,27.0356445 C48.5875636,26.6824527 48.1682969,26.5058594 47.6396484,26.5058594 Z M55.2138672,33.1367188 C54.211258,33.1367188 53.395511,32.8074577 52.7666016,32.1489258 C52.1376922,31.4903938 51.8232422,30.609706 51.8232422,29.5068359 L51.8232422,29.2744141 C51.8232422,28.5406864 51.9633775,27.8855823 52.2436523,27.309082 C52.5239272,26.7325818 52.9158503,26.2814144 53.4194336,25.9555664 C53.9230168,25.6297184 54.4687471,25.4667969 55.0566406,25.4667969 C56.018234,25.4667969 56.7656223,25.7835255 57.2988281,26.4169922 C57.8320339,27.0504589 58.0986328,27.9573509 58.0986328,29.1376953 L58.0986328,29.6640625 L53.0878906,29.6640625 C53.1061199,30.3932328 53.3191711,30.9822569 53.7270508,31.4311523 C54.1349304,31.8800478 54.6533172,32.1044922 55.2822266,32.1044922 C55.7288434,32.1044922 56.1070948,32.0133473 56.4169922,31.8310547 C56.7268896,31.6487621 56.9980457,31.4072281 57.2304688,31.1064453 L58.0029297,31.7080078 C57.3831349,32.6604865 56.4534567,33.1367188 55.2138672,33.1367188 Z M55.0566406,26.5058594 C54.5462214,26.5058594 54.1178403,26.6915672 53.7714844,27.0629883 C53.4251285,27.4344094 53.2109379,27.9550748 53.1289063,28.625 L56.8339844,28.625 L56.8339844,28.5292969 C56.7975259,27.8867155 56.6243505,27.3888364 56.3144531,27.0356445 C56.0045557,26.6824527 55.5852891,26.5058594 55.0566406,26.5058594 Z M63.8681641,31.0380859 C63.8681641,30.6962874 63.7394219,30.4308278 63.4819336,30.2416992 C63.2244453,30.0525707 62.7755566,29.8896491 62.1352539,29.7529297 C61.4949512,29.6162103 60.9868183,29.4521494 60.6108398,29.2607422 C60.2348614,29.069335 59.9568694,28.8414727 59.7768555,28.5771484 C59.5968415,28.3128242 59.5068359,27.9983742 59.5068359,27.6337891 C59.5068359,27.0276662 59.763181,26.5149761 60.2758789,26.0957031 C60.7885768,25.6764302 61.4436809,25.4667969 62.2412109,25.4667969 C63.0797568,25.4667969 63.7599258,25.6832661 64.2817383,26.1162109 C64.8035508,26.5491558 65.0644531,27.1028612 65.0644531,27.7773438 L63.7929688,27.7773438 C63.7929688,27.4309879 63.6459976,27.1324882 63.3520508,26.8818359 C63.058104,26.6311836 62.6878278,26.5058594 62.2412109,26.5058594 C61.7809222,26.5058594 61.4208997,26.6061188 61.1611328,26.8066406 C60.9013659,27.0071625 60.7714844,27.2692041 60.7714844,27.5927734 C60.7714844,27.8981135 60.8922514,28.1282544 61.1337891,28.2832031 C61.3753267,28.4381518 61.811683,28.5862623 62.4428711,28.7275391 C63.0740591,28.8688158 63.58561,29.0374339 63.9775391,29.2333984 C64.3694681,29.429363 64.6599925,29.6652004 64.8491211,29.940918 C65.0382496,30.2166355 65.1328125,30.5527324 65.1328125,30.9492188 C65.1328125,31.6100293 64.8684922,32.1398092 64.3398438,32.5385742 C63.8111953,32.9373392 63.1253297,33.1367188 62.2822266,33.1367188 C61.6897757,33.1367188 61.1656924,33.0319021 60.7099609,32.8222656 C60.2542295,32.6126292 59.897625,32.3198261 59.6401367,31.9438477 C59.3826485,31.5678692 59.2539063,31.161135 59.2539063,30.7236328 L60.5185547,30.7236328 C60.5413413,31.1474631 60.7110987,31.48356 61.027832,31.7319336 C61.3445654,31.9803072 61.7626927,32.1044922 62.2822266,32.1044922 C62.7607446,32.1044922 63.1446926,32.0076507 63.434082,31.8139648 C63.7234715,31.620279 63.8681641,31.3616553 63.8681641,31.0380859 Z M69.8496094,33.1367188 C68.8470002,33.1367188 68.0312531,32.8074577 67.4023438,32.1489258 C66.7734344,31.4903938 66.4589844,30.609706 66.4589844,29.5068359 L66.4589844,29.2744141 C66.4589844,28.5406864 66.5991197,27.8855823 66.8793945,27.309082 C67.1596694,26.7325818 67.5515925,26.2814144 68.0551758,25.9555664 C68.558759,25.6297184 69.1044892,25.4667969 69.6923828,25.4667969 C70.6539762,25.4667969 71.4013645,25.7835255 71.9345703,26.4169922 C72.4677761,27.0504589 72.734375,27.9573509 72.734375,29.1376953 L72.734375,29.6640625 L67.7236328,29.6640625 C67.7418621,30.3932328 67.9549133,30.9822569 68.362793,31.4311523 C68.7706726,31.8800478 69.2890594,32.1044922 69.9179688,32.1044922 C70.3645856,32.1044922 70.742837,32.0133473 71.0527344,31.8310547 C71.3626318,31.6487621 71.6337879,31.4072281 71.8662109,31.1064453 L72.6386719,31.7080078 C72.0188771,32.6604865 71.0891989,33.1367188 69.8496094,33.1367188 Z M69.6923828,26.5058594 C69.1819636,26.5058594 68.7535825,26.6915672 68.4072266,27.0629883 C68.0608707,27.4344094 67.8466801,27.9550748 67.7646484,28.625 L71.4697266,28.625 L71.4697266,28.5292969 C71.433268,27.8867155 71.2600927,27.3888364 70.9501953,27.0356445 C70.6402979,26.6824527 70.2210313,26.5058594 69.6923828,26.5058594 Z M77.1640625,32.1044922 C77.6152366,32.1044922 78.0094384,31.9677748 78.3466797,31.6943359 C78.683921,31.4208971 78.870768,31.0791036 78.9072266,30.6689453 L80.1035156,30.6689453 C80.0807291,31.0927756 79.9348972,31.4960918 79.6660156,31.8789062 C79.3971341,32.2617207 79.0382509,32.5670562 78.5893555,32.7949219 C78.14046,33.0227876 77.6653671,33.1367188 77.1640625,33.1367188 C76.156896,33.1367188 75.35596,32.8006219 74.7612305,32.128418 C74.1665009,31.4562141 73.8691406,30.5367897 73.8691406,29.3701172 L73.8691406,29.1582031 C73.8691406,28.4381474 74.0013008,27.7978544 74.265625,27.2373047 C74.5299492,26.676755 74.90934,26.241538 75.4038086,25.9316406 C75.8982772,25.6217432 76.482744,25.4667969 77.1572266,25.4667969 C77.9866578,25.4667969 78.6759413,25.7151668 79.2250977,26.2119141 C79.774254,26.7086613 80.0670571,27.3535117 80.1035156,28.1464844 L78.9072266,28.1464844 C78.870768,27.6679664 78.6896175,27.2749039 78.3637695,26.9672852 C78.0379215,26.6596664 77.6357446,26.5058594 77.1572266,26.5058594 C76.5146452,26.5058594 76.0167661,26.7371396 75.6635742,27.199707 C75.3103823,27.6622744 75.1337891,28.3310503 75.1337891,29.2060547 L75.1337891,29.4453125 C75.1337891,30.2975303 75.309243,30.9537737 75.6601562,31.4140625 C76.0110695,31.8743513 76.5123665,32.1044922 77.1640625,32.1044922 Z M86.0917969,33 C86.0188798,32.8541659 85.9596356,32.5944029 85.9140625,32.2207031 C85.3261689,32.8313833 84.624353,33.1367188 83.8085938,33.1367188 C83.0794234,33.1367188 82.4812849,32.9305034 82.0141602,32.5180664 C81.5470354,32.1056294 81.3134766,31.5826855 81.3134766,30.9492188 C81.3134766,30.1790326 81.6062796,29.5808941 82.1918945,29.1547852 C82.7775094,28.7286763 83.6012317,28.515625 84.6630859,28.515625 L85.8935547,28.515625 L85.8935547,27.9345703 C85.8935547,27.4925108 85.7613946,27.1404635 85.4970703,26.878418 C85.2327461,26.6163724 84.8431015,26.4853516 84.328125,26.4853516 C83.8769509,26.4853516 83.4986994,26.5992827 83.1933594,26.8271484 C82.8880193,27.0550142 82.7353516,27.3307275 82.7353516,27.6542969 L81.4638672,27.6542969 C81.4638672,27.2851544 81.594888,26.9285499 81.8569336,26.5844727 C82.1189792,26.2403954 82.4744444,25.9681 82.9233398,25.7675781 C83.3722353,25.5670563 83.8655572,25.4667969 84.4033203,25.4667969 C85.2555381,25.4667969 85.9231747,25.6798481 86.40625,26.105957 C86.8893253,26.5320659 87.1399739,27.1188114 87.1582031,27.8662109 L87.1582031,31.2705078 C87.1582031,31.9495477 87.2447908,32.4895813 87.4179688,32.890625 L87.4179688,33 L86.0917969,33 Z M83.9931641,32.0361328 C84.3896504,32.0361328 84.7656232,31.9335948 85.1210938,31.7285156 C85.4765643,31.5234365 85.7340487,31.2568376 85.8935547,30.9287109 L85.8935547,29.4111328 L84.9023438,29.4111328 C83.3528568,29.4111328 82.578125,29.8645788 82.578125,30.7714844 C82.578125,31.1679707 82.7102851,31.4778635 82.9746094,31.7011719 C83.2389336,31.9244803 83.5784484,32.0361328 83.9931641,32.0361328 Z M91.2050781,29.5751953 L90.4121094,30.4023438 L90.4121094,33 L89.1474609,33 L89.1474609,22.5 L90.4121094,22.5 L90.4121094,28.8505859 L91.0888672,28.0371094 L93.3925781,25.6035156 L94.9306641,25.6035156 L92.0527344,28.6933594 L95.265625,33 L93.7822266,33 L91.2050781,29.5751953 Z M99.3056641,33.1367188 C98.3030549,33.1367188 97.4873078,32.8074577 96.8583984,32.1489258 C96.229489,31.4903938 95.9150391,30.609706 95.9150391,29.5068359 L95.9150391,29.2744141 C95.9150391,28.5406864 96.0551744,27.8855823 96.3354492,27.309082 C96.6157241,26.7325818 97.0076472,26.2814144 97.5112305,25.9555664 C98.0148137,25.6297184 98.5605439,25.4667969 99.1484375,25.4667969 C100.110031,25.4667969 100.857419,25.7835255 101.390625,26.4169922 C101.923831,27.0504589 102.19043,27.9573509 102.19043,29.1376953 L102.19043,29.6640625 L97.1796875,29.6640625 C97.1979168,30.3932328 97.410968,30.9822569 97.8188477,31.4311523 C98.2267273,31.8800478 98.745114,32.1044922 99.3740234,32.1044922 C99.8206403,32.1044922 100.198892,32.0133473 100.508789,31.8310547 C100.818686,31.6487621 101.089843,31.4072281 101.322266,31.1064453 L102.094727,31.7080078 C101.474932,32.6604865 100.545254,33.1367188 99.3056641,33.1367188 Z M99.1484375,26.5058594 C98.6380183,26.5058594 98.2096371,26.6915672 97.8632813,27.0629883 C97.5169254,27.4344094 97.3027348,27.9550748 97.2207031,28.625 L100.925781,28.625 L100.925781,28.5292969 C100.889323,27.8867155 100.716147,27.3888364 100.40625,27.0356445 C100.096353,26.6824527 99.677086,26.5058594 99.1484375,26.5058594 Z M112.806641,28.6044922 L108.629883,28.6044922 L108.629883,33 L107.317383,33 L107.317383,23.046875 L113.483398,23.046875 L113.483398,24.1269531 L108.629883,24.1269531 L108.629883,27.53125 L112.806641,27.53125 L112.806641,28.6044922 Z M119.423828,33 C119.350911,32.8541659 119.291667,32.5944029 119.246094,32.2207031 C118.6582,32.8313833 117.956384,33.1367188 117.140625,33.1367188 C116.411455,33.1367188 115.813316,32.9305034 115.346191,32.5180664 C114.879067,32.1056294 114.645508,31.5826855 114.645508,30.9492188 C114.645508,30.1790326 114.938311,29.5808941 115.523926,29.1547852 C116.109541,28.7286763 116.933263,28.515625 117.995117,28.515625 L119.225586,28.515625 L119.225586,27.9345703 C119.225586,27.4925108 119.093426,27.1404635 118.829102,26.878418 C118.564777,26.6163724 118.175133,26.4853516 117.660156,26.4853516 C117.208982,26.4853516 116.830731,26.5992827 116.525391,26.8271484 C116.220051,27.0550142 116.067383,27.3307275 116.067383,27.6542969 L114.795898,27.6542969 C114.795898,27.2851544 114.926919,26.9285499 115.188965,26.5844727 C115.45101,26.2403954 115.806476,25.9681 116.255371,25.7675781 C116.704267,25.5670563 117.197588,25.4667969 117.735352,25.4667969 C118.587569,25.4667969 119.255206,25.6798481 119.738281,26.105957 C120.221357,26.5320659 120.472005,27.1188114 120.490234,27.8662109 L120.490234,31.2705078 C120.490234,31.9495477 120.576822,32.4895813 120.75,32.890625 L120.75,33 L119.423828,33 Z M117.325195,32.0361328 C117.721682,32.0361328 118.097654,31.9335948 118.453125,31.7285156 C118.808596,31.5234365 119.06608,31.2568376 119.225586,30.9287109 L119.225586,29.4111328 L118.234375,29.4111328 C116.684888,29.4111328 115.910156,29.8645788 115.910156,30.7714844 C115.910156,31.1679707 116.042316,31.4778635 116.306641,31.7011719 C116.570965,31.9244803 116.91048,32.0361328 117.325195,32.0361328 Z M125.439453,32.1044922 C125.890627,32.1044922 126.284829,31.9677748 126.62207,31.6943359 C126.959312,31.4208971 127.146159,31.0791036 127.182617,30.6689453 L128.378906,30.6689453 C128.35612,31.0927756 128.210288,31.4960918 127.941406,31.8789062 C127.672525,32.2617207 127.313642,32.5670562 126.864746,32.7949219 C126.415851,33.0227876 125.940758,33.1367188 125.439453,33.1367188 C124.432287,33.1367188 123.631351,32.8006219 123.036621,32.128418 C122.441892,31.4562141 122.144531,30.5367897 122.144531,29.3701172 L122.144531,29.1582031 C122.144531,28.4381474 122.276691,27.7978544 122.541016,27.2373047 C122.80534,26.676755 123.184731,26.241538 123.679199,25.9316406 C124.173668,25.6217432 124.758135,25.4667969 125.432617,25.4667969 C126.262048,25.4667969 126.951332,25.7151668 127.500488,26.2119141 C128.049645,26.7086613 128.342448,27.3535117 128.378906,28.1464844 L127.182617,28.1464844 C127.146159,27.6679664 126.965008,27.2749039 126.63916,26.9672852 C126.313312,26.6596664 125.911135,26.5058594 125.432617,26.5058594 C124.790036,26.5058594 124.292157,26.7371396 123.938965,27.199707 C123.585773,27.6622744 123.40918,28.3310503 123.40918,29.2060547 L123.40918,29.4453125 C123.40918,30.2975303 123.584634,30.9537737 123.935547,31.4140625 C124.28646,31.8743513 124.787757,32.1044922 125.439453,32.1044922 Z M131.516602,23.8125 L131.516602,25.6035156 L132.897461,25.6035156 L132.897461,26.5810547 L131.516602,26.5810547 L131.516602,31.1679688 C131.516602,31.4641942 131.578124,31.6863599 131.701172,31.8344727 C131.824219,31.9825854 132.033853,32.0566406 132.330078,32.0566406 C132.475912,32.0566406 132.676431,32.0292971 132.931641,31.9746094 L132.931641,33 C132.598957,33.0911463 132.275392,33.1367188 131.960938,33.1367188 C131.395831,33.1367188 130.969728,32.965822 130.682617,32.6240234 C130.395506,32.2822249 130.251953,31.7968781 130.251953,31.1679688 L130.251953,26.5810547 L128.905273,26.5810547 L128.905273,25.6035156 L130.251953,25.6035156 L130.251953,23.8125 L131.516602,23.8125 Z M134.039063,29.2333984 C134.039063,28.5087854 134.181476,27.8570992 134.466309,27.2783203 C134.751141,26.6995414 135.147621,26.2529313 135.655762,25.9384766 C136.163902,25.6240219 136.743812,25.4667969 137.395508,25.4667969 C138.402674,25.4667969 139.217282,25.8154262 139.839355,26.5126953 C140.461429,27.2099644 140.772461,28.137364 140.772461,29.2949219 L140.772461,29.3837891 C140.772461,30.1038447 140.634604,30.7498344 140.358887,31.3217773 C140.083169,31.8937203 139.688967,32.3391911 139.17627,32.6582031 C138.663572,32.9772151 138.074548,33.1367188 137.40918,33.1367188 C136.406571,33.1367188 135.594241,32.7880894 134.972168,32.0908203 C134.350095,31.3935512 134.039063,30.4707089 134.039063,29.3222656 L134.039063,29.2333984 Z M135.310547,29.3837891 C135.310547,30.2041057 135.500812,30.8626277 135.881348,31.359375 C136.261883,31.8561223 136.771156,32.1044922 137.40918,32.1044922 C138.051761,32.1044922 138.562173,31.8527043 138.94043,31.3491211 C139.318687,30.8455378 139.507813,30.140304 139.507813,29.2333984 C139.507813,28.4221965 139.315269,27.7648137 138.930176,27.2612305 C138.545083,26.7576472 138.033532,26.5058594 137.395508,26.5058594 C136.771156,26.5058594 136.26758,26.7542293 135.884766,27.2509766 C135.501951,27.7477238 135.310547,28.4586542 135.310547,29.3837891 Z M145.933594,26.7382812 C145.742187,26.70638 145.534832,26.6904297 145.311523,26.6904297 C144.482092,26.6904297 143.919272,27.0436163 143.623047,27.75 L143.623047,33 L142.358398,33 L142.358398,25.6035156 L143.588867,25.6035156 L143.609375,26.4580078 C144.024091,25.7971972 144.611975,25.4667969 145.373047,25.4667969 C145.619142,25.4667969 145.805989,25.4986976 145.933594,25.5625 L145.933594,26.7382812 Z M149.515625,31.1474609 L151.238281,25.6035156 L152.591797,25.6035156 L149.618164,34.1416016 C149.157875,35.3720765 148.426437,35.9873047 147.423828,35.9873047 L147.18457,35.9667969 L146.712891,35.8779297 L146.712891,34.8525391 L147.054688,34.8798828 C147.483075,34.8798828 147.816893,34.7932951 148.056152,34.6201172 C148.295411,34.4469392 148.492512,34.1302106 148.647461,33.6699219 L148.927734,32.9179688 L146.289063,25.6035156 L147.669922,25.6035156 L149.515625,31.1474609 Z M158.450195,26.4990234 C159.010745,25.810869 159.739904,25.4667969 160.637695,25.4667969 C162.200854,25.4667969 162.989258,26.348624 163.00293,28.1123047 L163.00293,33 L161.738281,33 L161.738281,28.1054688 C161.733724,27.572263 161.611818,27.1780612 161.372559,26.9228516 C161.1333,26.667642 160.760745,26.5400391 160.254883,26.5400391 C159.844725,26.5400391 159.484702,26.649413 159.174805,26.8681641 C158.864907,27.0869152 158.623373,27.3740217 158.450195,27.7294922 L158.450195,33 L157.185547,33 L157.185547,22.5 L158.450195,22.5 L158.450195,26.4990234 Z M169.462891,33 C169.389974,32.8541659 169.330729,32.5944029 169.285156,32.2207031 C168.697263,32.8313833 167.995447,33.1367188 167.179688,33.1367188 C166.450517,33.1367188 165.852379,32.9305034 165.385254,32.5180664 C164.918129,32.1056294 164.68457,31.5826855 164.68457,30.9492188 C164.68457,30.1790326 164.977373,29.5808941 165.562988,29.1547852 C166.148603,28.7286763 166.972325,28.515625 168.03418,28.515625 L169.264648,28.515625 L169.264648,27.9345703 C169.264648,27.4925108 169.132488,27.1404635 168.868164,26.878418 C168.60384,26.6163724 168.214195,26.4853516 167.699219,26.4853516 C167.248045,26.4853516 166.869793,26.5992827 166.564453,26.8271484 C166.259113,27.0550142 166.106445,27.3307275 166.106445,27.6542969 L164.834961,27.6542969 C164.834961,27.2851544 164.965982,26.9285499 165.228027,26.5844727 C165.490073,26.2403954 165.845538,25.9681 166.294434,25.7675781 C166.743329,25.5670563 167.236651,25.4667969 167.774414,25.4667969 C168.626632,25.4667969 169.294268,25.6798481 169.777344,26.105957 C170.260419,26.5320659 170.511068,27.1188114 170.529297,27.8662109 L170.529297,31.2705078 C170.529297,31.9495477 170.615885,32.4895813 170.789063,32.890625 L170.789063,33 L169.462891,33 Z M167.364258,32.0361328 C167.760744,32.0361328 168.136717,31.9335948 168.492188,31.7285156 C168.847658,31.5234365 169.105142,31.2568376 169.264648,30.9287109 L169.264648,29.4111328 L168.273438,29.4111328 C166.723951,29.4111328 165.949219,29.8645788 165.949219,30.7714844 C165.949219,31.1679707 166.081379,31.4778635 166.345703,31.7011719 C166.610027,31.9244803 166.949542,32.0361328 167.364258,32.0361328 Z M176.818359,31.0380859 C176.818359,30.6962874 176.689617,30.4308278 176.432129,30.2416992 C176.174641,30.0525707 175.725752,29.8896491 175.085449,29.7529297 C174.445147,29.6162103 173.937014,29.4521494 173.561035,29.2607422 C173.185057,29.069335 172.907065,28.8414727 172.727051,28.5771484 C172.547037,28.3128242 172.457031,27.9983742 172.457031,27.6337891 C172.457031,27.0276662 172.713376,26.5149761 173.226074,26.0957031 C173.738772,25.6764302 174.393876,25.4667969 175.191406,25.4667969 C176.029952,25.4667969 176.710121,25.6832661 177.231934,26.1162109 C177.753746,26.5491558 178.014648,27.1028612 178.014648,27.7773438 L176.743164,27.7773438 C176.743164,27.4309879 176.596193,27.1324882 176.302246,26.8818359 C176.008299,26.6311836 175.638023,26.5058594 175.191406,26.5058594 C174.731117,26.5058594 174.371095,26.6061188 174.111328,26.8066406 C173.851561,27.0071625 173.72168,27.2692041 173.72168,27.5927734 C173.72168,27.8981135 173.842447,28.1282544 174.083984,28.2832031 C174.325522,28.4381518 174.761878,28.5862623 175.393066,28.7275391 C176.024254,28.8688158 176.535805,29.0374339 176.927734,29.2333984 C177.319663,29.429363 177.610188,29.6652004 177.799316,29.940918 C177.988445,30.2166355 178.083008,30.5527324 178.083008,30.9492188 C178.083008,31.6100293 177.818688,32.1398092 177.290039,32.5385742 C176.761391,32.9373392 176.075525,33.1367188 175.232422,33.1367188 C174.639971,33.1367188 174.115888,33.0319021 173.660156,32.8222656 C173.204425,32.6126292 172.84782,32.3198261 172.590332,31.9438477 C172.332844,31.5678692 172.204102,31.161135 172.204102,30.7236328 L173.46875,30.7236328 C173.491537,31.1474631 173.661294,31.48356 173.978027,31.7319336 C174.294761,31.9803072 174.712888,32.1044922 175.232422,32.1044922 C175.71094,32.1044922 176.094888,32.0076507 176.384277,31.8139648 C176.673667,31.620279 176.818359,31.3616553 176.818359,31.0380859 Z M187.762695,33 C187.689778,32.8541659 187.630534,32.5944029 187.584961,32.2207031 C186.997067,32.8313833 186.295251,33.1367188 185.479492,33.1367188 C184.750322,33.1367188 184.152183,32.9305034 183.685059,32.5180664 C183.217934,32.1056294 182.984375,31.5826855 182.984375,30.9492188 C182.984375,30.1790326 183.277178,29.5808941 183.862793,29.1547852 C184.448408,28.7286763 185.27213,28.515625 186.333984,28.515625 L187.564453,28.515625 L187.564453,27.9345703 C187.564453,27.4925108 187.432293,27.1404635 187.167969,26.878418 C186.903645,26.6163724 186.514,26.4853516 185.999023,26.4853516 C185.547849,26.4853516 185.169598,26.5992827 184.864258,26.8271484 C184.558918,27.0550142 184.40625,27.3307275 184.40625,27.6542969 L183.134766,27.6542969 C183.134766,27.2851544 183.265786,26.9285499 183.527832,26.5844727 C183.789878,26.2403954 184.145343,25.9681 184.594238,25.7675781 C185.043134,25.5670563 185.536456,25.4667969 186.074219,25.4667969 C186.926437,25.4667969 187.594073,25.6798481 188.077148,26.105957 C188.560224,26.5320659 188.810872,27.1188114 188.829102,27.8662109 L188.829102,31.2705078 C188.829102,31.9495477 188.915689,32.4895813 189.088867,32.890625 L189.088867,33 L187.762695,33 Z M185.664063,32.0361328 C186.060549,32.0361328 186.436522,31.9335948 186.791992,31.7285156 C187.147463,31.5234365 187.404947,31.2568376 187.564453,30.9287109 L187.564453,29.4111328 L186.573242,29.4111328 C185.023755,29.4111328 184.249023,29.8645788 184.249023,30.7714844 C184.249023,31.1679707 184.381184,31.4778635 184.645508,31.7011719 C184.909832,31.9244803 185.249347,32.0361328 185.664063,32.0361328 Z M195.473633,25.6035156 L195.514648,26.5332031 C196.079755,25.8222621 196.818029,25.4667969 197.729492,25.4667969 C199.292651,25.4667969 200.081055,26.348624 200.094727,28.1123047 L200.094727,33 L198.830078,33 L198.830078,28.1054688 C198.825521,27.572263 198.703614,27.1780612 198.464355,26.9228516 C198.225096,26.667642 197.852542,26.5400391 197.34668,26.5400391 C196.936521,26.5400391 196.576499,26.649413 196.266602,26.8681641 C195.956704,27.0869152 195.71517,27.3740217 195.541992,27.7294922 L195.541992,33 L194.277344,33 L194.277344,25.6035156 L195.473633,25.6035156 Z M205.071289,33.1367188 C204.06868,33.1367188 203.252933,32.8074577 202.624023,32.1489258 C201.995114,31.4903938 201.680664,30.609706 201.680664,29.5068359 L201.680664,29.2744141 C201.680664,28.5406864 201.820799,27.8855823 202.101074,27.309082 C202.381349,26.7325818 202.773272,26.2814144 203.276855,25.9555664 C203.780439,25.6297184 204.326169,25.4667969 204.914063,25.4667969 C205.875656,25.4667969 206.623044,25.7835255 207.15625,26.4169922 C207.689456,27.0504589 207.956055,27.9573509 207.956055,29.1376953 L207.956055,29.6640625 L202.945313,29.6640625 C202.963542,30.3932328 203.176593,30.9822569 203.584473,31.4311523 C203.992352,31.8800478 204.510739,32.1044922 205.139648,32.1044922 C205.586265,32.1044922 205.964517,32.0133473 206.274414,31.8310547 C206.584311,31.6487621 206.855468,31.4072281 207.087891,31.1064453 L207.860352,31.7080078 C207.240557,32.6604865 206.310879,33.1367188 205.071289,33.1367188 Z M204.914062,26.5058594 C204.403643,26.5058594 203.975262,26.6915672 203.628906,27.0629883 C203.28255,27.4344094 203.06836,27.9550748 202.986328,28.625 L206.691406,28.625 L206.691406,28.5292969 C206.654948,27.8867155 206.481772,27.3888364 206.171875,27.0356445 C205.861978,26.6824527 205.442711,26.5058594 204.914062,26.5058594 Z M215.967773,31.2568359 L217.389648,25.6035156 L218.654297,25.6035156 L216.500977,33 L215.475586,33 L213.677734,27.3945312 L211.927734,33 L210.902344,33 L208.755859,25.6035156 L210.013672,25.6035156 L211.469727,31.140625 L213.192383,25.6035156 L214.210938,25.6035156 L215.967773,31.2568359 Z M223.097656,29.2402344 C223.097656,28.1054631 223.366534,27.1928745 223.904297,26.5024414 C224.44206,25.8120083 225.146155,25.4667969 226.016602,25.4667969 C226.882491,25.4667969 227.568357,25.7630179 228.074219,26.3554688 L228.074219,22.5 L229.338867,22.5 L229.338867,33 L228.176758,33 L228.115234,32.2070312 C227.609372,32.826826 226.905278,33.1367188 226.00293,33.1367188 C225.146155,33.1367188 224.447757,32.7858108 223.907715,32.0839844 C223.367673,31.3821579 223.097656,30.4661515 223.097656,29.3359375 L223.097656,29.2402344 Z M224.362305,29.3837891 C224.362305,30.2223349 224.53548,30.8785784 224.881836,31.3525391 C225.228192,31.8264998 225.706703,32.0634766 226.317383,32.0634766 C227.11947,32.0634766 227.705076,31.7034541 228.074219,30.9833984 L228.074219,27.5859375 C227.695962,26.8886684 227.114913,26.5400391 226.331055,26.5400391 C225.71126,26.5400391 225.228192,26.7792945 224.881836,27.2578125 C224.53548,27.7363305 224.362305,28.4449823 224.362305,29.3837891 Z M234.370117,33.1367188 C233.367508,33.1367188 232.551761,32.8074577 231.922852,32.1489258 C231.293942,31.4903938 230.979492,30.609706 230.979492,29.5068359 L230.979492,29.2744141 C230.979492,28.5406864 231.119628,27.8855823 231.399902,27.309082 C231.680177,26.7325818 232.0721,26.2814144 232.575684,25.9555664 C233.079267,25.6297184 233.624997,25.4667969 234.212891,25.4667969 C235.174484,25.4667969 235.921872,25.7835255 236.455078,26.4169922 C236.988284,27.0504589 237.254883,27.9573509 237.254883,29.1376953 L237.254883,29.6640625 L232.244141,29.6640625 C232.26237,30.3932328 232.475421,30.9822569 232.883301,31.4311523 C233.29118,31.8800478 233.809567,32.1044922 234.438477,32.1044922 C234.885093,32.1044922 235.263345,32.0133473 235.573242,31.8310547 C235.88314,31.6487621 236.154296,31.4072281 236.386719,31.1064453 L237.15918,31.7080078 C236.539385,32.6604865 235.609707,33.1367188 234.370117,33.1367188 Z M234.212891,26.5058594 C233.702471,26.5058594 233.27409,26.6915672 232.927734,27.0629883 C232.581378,27.4344094 232.367188,27.9550748 232.285156,28.625 L235.990234,28.625 L235.990234,28.5292969 C235.953776,27.8867155 235.780601,27.3888364 235.470703,27.0356445 C235.160806,26.6824527 234.741539,26.5058594 234.212891,26.5058594 Z M243.024414,31.0380859 C243.024414,30.6962874 242.895672,30.4308278 242.638184,30.2416992 C242.380695,30.0525707 241.931807,29.8896491 241.291504,29.7529297 C240.651201,29.6162103 240.143068,29.4521494 239.76709,29.2607422 C239.391111,29.069335 239.113119,28.8414727 238.933105,28.5771484 C238.753092,28.3128242 238.663086,27.9983742 238.663086,27.6337891 C238.663086,27.0276662 238.919431,26.5149761 239.432129,26.0957031 C239.944827,25.6764302 240.599931,25.4667969 241.397461,25.4667969 C242.236007,25.4667969 242.916176,25.6832661 243.437988,26.1162109 C243.959801,26.5491558 244.220703,27.1028612 244.220703,27.7773438 L242.949219,27.7773438 C242.949219,27.4309879 242.802248,27.1324882 242.508301,26.8818359 C242.214354,26.6311836 241.844078,26.5058594 241.397461,26.5058594 C240.937172,26.5058594 240.57715,26.6061188 240.317383,26.8066406 C240.057616,27.0071625 239.927734,27.2692041 239.927734,27.5927734 C239.927734,27.8981135 240.048501,28.1282544 240.290039,28.2832031 C240.531577,28.4381518 240.967933,28.5862623 241.599121,28.7275391 C242.230309,28.8688158 242.74186,29.0374339 243.133789,29.2333984 C243.525718,29.429363 243.816243,29.6652004 244.005371,29.940918 C244.1945,30.2166355 244.289063,30.5527324 244.289063,30.9492188 C244.289063,31.6100293 244.024742,32.1398092 243.496094,32.5385742 C242.967445,32.9373392 242.28158,33.1367188 241.438477,33.1367188 C240.846026,33.1367188 240.321942,33.0319021 239.866211,32.8222656 C239.410479,32.6126292 239.053875,32.3198261 238.796387,31.9438477 C238.538898,31.5678692 238.410156,31.161135 238.410156,30.7236328 L239.674805,30.7236328 C239.697591,31.1474631 239.867349,31.48356 240.184082,31.7319336 C240.500815,31.9803072 240.918943,32.1044922 241.438477,32.1044922 C241.916995,32.1044922 242.300943,32.0076507 242.590332,31.8139648 C242.879721,31.620279 243.024414,31.3616553 243.024414,31.0380859 Z M250.243164,31.0380859 C250.243164,30.6962874 250.114422,30.4308278 249.856934,30.2416992 C249.599445,30.0525707 249.150557,29.8896491 248.510254,29.7529297 C247.869951,29.6162103 247.361818,29.4521494 246.98584,29.2607422 C246.609861,29.069335 246.331869,28.8414727 246.151855,28.5771484 C245.971842,28.3128242 245.881836,27.9983742 245.881836,27.6337891 C245.881836,27.0276662 246.138181,26.5149761 246.650879,26.0957031 C247.163577,25.6764302 247.818681,25.4667969 248.616211,25.4667969 C249.454757,25.4667969 250.134926,25.6832661 250.656738,26.1162109 C251.178551,26.5491558 251.439453,27.1028612 251.439453,27.7773438 L250.167969,27.7773438 C250.167969,27.4309879 250.020998,27.1324882 249.727051,26.8818359 C249.433104,26.6311836 249.062828,26.5058594 248.616211,26.5058594 C248.155922,26.5058594 247.7959,26.6061188 247.536133,26.8066406 C247.276366,27.0071625 247.146484,27.2692041 247.146484,27.5927734 C247.146484,27.8981135 247.267251,28.1282544 247.508789,28.2832031 C247.750327,28.4381518 248.186683,28.5862623 248.817871,28.7275391 C249.449059,28.8688158 249.96061,29.0374339 250.352539,29.2333984 C250.744468,29.429363 251.034993,29.6652004 251.224121,29.940918 C251.41325,30.2166355 251.507812,30.5527324 251.507812,30.9492188 C251.507812,31.6100293 251.243492,32.1398092 250.714844,32.5385742 C250.186195,32.9373392 249.50033,33.1367188 248.657227,33.1367188 C248.064776,33.1367188 247.540692,33.0319021 247.084961,32.8222656 C246.629229,32.6126292 246.272625,32.3198261 246.015137,31.9438477 C245.757648,31.5678692 245.628906,31.161135 245.628906,30.7236328 L246.893555,30.7236328 C246.916341,31.1474631 247.086099,31.48356 247.402832,31.7319336 C247.719565,31.9803072 248.137693,32.1044922 248.657227,32.1044922 C249.135745,32.1044922 249.519693,32.0076507 249.809082,31.8139648 C250.098471,31.620279 250.243164,31.3616553 250.243164,31.0380859 Z M256.224609,33.1367188 C255.222,33.1367188 254.406253,32.8074577 253.777344,32.1489258 C253.148434,31.4903938 252.833984,30.609706 252.833984,29.5068359 L252.833984,29.2744141 C252.833984,28.5406864 252.97412,27.8855823 253.254395,27.309082 C253.534669,26.7325818 253.926593,26.2814144 254.430176,25.9555664 C254.933759,25.6297184 255.479489,25.4667969 256.067383,25.4667969 C257.028976,25.4667969 257.776365,25.7835255 258.30957,26.4169922 C258.842776,27.0504589 259.109375,27.9573509 259.109375,29.1376953 L259.109375,29.6640625 L254.098633,29.6640625 C254.116862,30.3932328 254.329913,30.9822569 254.737793,31.4311523 C255.145673,31.8800478 255.664059,32.1044922 256.292969,32.1044922 C256.739586,32.1044922 257.117837,32.0133473 257.427734,31.8310547 C257.737632,31.6487621 258.008788,31.4072281 258.241211,31.1064453 L259.013672,31.7080078 C258.393877,32.6604865 257.464199,33.1367188 256.224609,33.1367188 Z M256.067383,26.5058594 C255.556964,26.5058594 255.128582,26.6915672 254.782227,27.0629883 C254.435871,27.4344094 254.22168,27.9550748 254.139648,28.625 L257.844727,28.625 L257.844727,28.5292969 C257.808268,27.8867155 257.635093,27.3888364 257.325195,27.0356445 C257.015298,26.6824527 256.596031,26.5058594 256.067383,26.5058594 Z M264.147461,26.7382812 C263.956054,26.70638 263.748699,26.6904297 263.525391,26.6904297 C262.695959,26.6904297 262.13314,27.0436163 261.836914,27.75 L261.836914,33 L260.572266,33 L260.572266,25.6035156 L261.802734,25.6035156 L261.823242,26.4580078 C262.237958,25.7971972 262.825843,25.4667969 263.586914,25.4667969 C263.833009,25.4667969 264.019856,25.4986976 264.147461,25.5625 L264.147461,26.7382812 Z M267.025391,23.8125 L267.025391,25.6035156 L268.40625,25.6035156 L268.40625,26.5810547 L267.025391,26.5810547 L267.025391,31.1679688 C267.025391,31.4641942 267.086913,31.6863599 267.209961,31.8344727 C267.333008,31.9825854 267.542642,32.0566406 267.838867,32.0566406 C267.984701,32.0566406 268.18522,32.0292971 268.44043,31.9746094 L268.44043,33 C268.107746,33.0911463 267.784181,33.1367188 267.469727,33.1367188 C266.90462,33.1367188 266.478517,32.965822 266.191406,32.6240234 C265.904295,32.2822249 265.760742,31.7968781 265.760742,31.1679688 L265.760742,26.5810547 L264.414063,26.5810547 L264.414063,25.6035156 L265.760742,25.6035156 L265.760742,23.8125 L267.025391,23.8125 Z M273.970703,33 L273.970703,26.5810547 L272.801758,26.5810547 L272.801758,25.6035156 L273.970703,25.6035156 L273.970703,24.8447266 C273.970703,24.0517538 274.182615,23.4388042 274.606445,23.0058594 C275.030276,22.5729145 275.629553,22.3564453 276.404297,22.3564453 C276.695965,22.3564453 276.98535,22.3951819 277.272461,22.4726562 L277.204102,23.4980469 C276.989908,23.457031 276.762045,23.4365234 276.520508,23.4365234 C276.11035,23.4365234 275.793621,23.5561511 275.570312,23.7954102 C275.347004,24.0346692 275.235352,24.3776019 275.235352,24.8242188 L275.235352,25.6035156 L276.814453,25.6035156 L276.814453,26.5810547 L275.235352,26.5810547 L275.235352,33 L273.970703,33 Z M277.874023,29.2333984 C277.874023,28.5087854 278.016437,27.8570992 278.30127,27.2783203 C278.586102,26.6995414 278.982582,26.2529313 279.490723,25.9384766 C279.998863,25.6240219 280.578773,25.4667969 281.230469,25.4667969 C282.237635,25.4667969 283.052243,25.8154262 283.674316,26.5126953 C284.29639,27.2099644 284.607422,28.137364 284.607422,29.2949219 L284.607422,29.3837891 C284.607422,30.1038447 284.469565,30.7498344 284.193848,31.3217773 C283.91813,31.8937203 283.523928,32.3391911 283.01123,32.6582031 C282.498533,32.9772151 281.909509,33.1367188 281.244141,33.1367188 C280.241531,33.1367188 279.429202,32.7880894 278.807129,32.0908203 C278.185055,31.3935512 277.874023,30.4707089 277.874023,29.3222656 L277.874023,29.2333984 Z M279.145508,29.3837891 C279.145508,30.2041057 279.335773,30.8626277 279.716309,31.359375 C280.096844,31.8561223 280.606117,32.1044922 281.244141,32.1044922 C281.886722,32.1044922 282.397134,31.8527043 282.775391,31.3491211 C283.153648,30.8455378 283.342773,30.140304 283.342773,29.2333984 C283.342773,28.4221965 283.15023,27.7648137 282.765137,27.2612305 C282.380044,26.7576472 281.868493,26.5058594 281.230469,26.5058594 C280.606117,26.5058594 280.102541,26.7542293 279.719727,27.2509766 C279.336912,27.7477238 279.145508,28.4586542 279.145508,29.3837891 Z M289.768555,26.7382812 C289.577147,26.70638 289.369793,26.6904297 289.146484,26.6904297 C288.317053,26.6904297 287.754233,27.0436163 287.458008,27.75 L287.458008,33 L286.193359,33 L286.193359,25.6035156 L287.423828,25.6035156 L287.444336,26.4580078 C287.859052,25.7971972 288.446936,25.4667969 289.208008,25.4667969 C289.454103,25.4667969 289.64095,25.4986976 289.768555,25.5625 L289.768555,26.7382812 Z M296.816406,31.1474609 L298.539062,25.6035156 L299.892578,25.6035156 L296.918945,34.1416016 C296.458657,35.3720765 295.727219,35.9873047 294.724609,35.9873047 L294.485352,35.9667969 L294.013672,35.8779297 L294.013672,34.8525391 L294.355469,34.8798828 C294.783856,34.8798828 295.117675,34.7932951 295.356934,34.6201172 C295.596193,34.4469392 295.793293,34.1302106 295.948242,33.6699219 L296.228516,32.9179688 L293.589844,25.6035156 L294.970703,25.6035156 L296.816406,31.1474609 Z M300.685547,29.2333984 C300.685547,28.5087854 300.827961,27.8570992 301.112793,27.2783203 C301.397625,26.6995414 301.794106,26.2529313 302.302246,25.9384766 C302.810387,25.6240219 303.390296,25.4667969 304.041992,25.4667969 C305.049159,25.4667969 305.863766,25.8154262 306.48584,26.5126953 C307.107913,27.2099644 307.418945,28.137364 307.418945,29.2949219 L307.418945,29.3837891 C307.418945,30.1038447 307.281089,30.7498344 307.005371,31.3217773 C306.729654,31.8937203 306.335452,32.3391911 305.822754,32.6582031 C305.310056,32.9772151 304.721032,33.1367188 304.055664,33.1367188 C303.053055,33.1367188 302.240726,32.7880894 301.618652,32.0908203 C300.996579,31.3935512 300.685547,30.4707089 300.685547,29.3222656 L300.685547,29.2333984 Z M301.957031,29.3837891 C301.957031,30.2041057 302.147296,30.8626277 302.527832,31.359375 C302.908368,31.8561223 303.41764,32.1044922 304.055664,32.1044922 C304.698245,32.1044922 305.208657,31.8527043 305.586914,31.3491211 C305.965171,30.8455378 306.154297,30.140304 306.154297,29.2333984 C306.154297,28.4221965 305.961753,27.7648137 305.57666,27.2612305 C305.191567,26.7576472 304.680016,26.5058594 304.041992,26.5058594 C303.41764,26.5058594 302.914064,26.7542293 302.53125,27.2509766 C302.148436,27.7477238 301.957031,28.4586542 301.957031,29.3837891 Z M313.571289,32.2685547 C313.079099,32.8473336 312.356776,33.1367188 311.404297,33.1367188 C310.615881,33.1367188 310.015464,32.9077171 309.603027,32.449707 C309.19059,31.9916969 308.982096,31.3138066 308.977539,30.4160156 L308.977539,25.6035156 L310.242188,25.6035156 L310.242188,30.3818359 C310.242188,31.5029353 310.697912,32.0634766 311.609375,32.0634766 C312.575526,32.0634766 313.218097,31.7034541 313.537109,30.9833984 L313.537109,25.6035156 L314.801758,25.6035156 L314.801758,33 L313.598633,33 L313.571289,32.2685547 Z M321.904297,23.8125 L321.904297,25.6035156 L323.285156,25.6035156 L323.285156,26.5810547 L321.904297,26.5810547 L321.904297,31.1679688 C321.904297,31.4641942 321.96582,31.6863599 322.088867,31.8344727 C322.211915,31.9825854 322.421548,32.0566406 322.717773,32.0566406 C322.863608,32.0566406 323.064126,32.0292971 323.319336,31.9746094 L323.319336,33 C322.986652,33.0911463 322.663088,33.1367188 322.348633,33.1367188 C321.783526,33.1367188 321.357423,32.965822 321.070313,32.6240234 C320.783202,32.2822249 320.639648,31.7968781 320.639648,31.1679688 L320.639648,26.5810547 L319.292969,26.5810547 L319.292969,25.6035156 L320.639648,25.6035156 L320.639648,23.8125 L321.904297,23.8125 Z M324.426758,29.2333984 C324.426758,28.5087854 324.569172,27.8570992 324.854004,27.2783203 C325.138836,26.6995414 325.535316,26.2529313 326.043457,25.9384766 C326.551598,25.6240219 327.131507,25.4667969 327.783203,25.4667969 C328.79037,25.4667969 329.604977,25.8154262 330.227051,26.5126953 C330.849124,27.2099644 331.160156,28.137364 331.160156,29.2949219 L331.160156,29.3837891 C331.160156,30.1038447 331.0223,30.7498344 330.746582,31.3217773 C330.470865,31.8937203 330.076663,32.3391911 329.563965,32.6582031 C329.051267,32.9772151 328.462243,33.1367188 327.796875,33.1367188 C326.794266,33.1367188 325.981937,32.7880894 325.359863,32.0908203 C324.73779,31.3935512 324.426758,30.4707089 324.426758,29.3222656 L324.426758,29.2333984 Z M325.698242,29.3837891 C325.698242,30.2041057 325.888507,30.8626277 326.269043,31.359375 C326.649579,31.8561223 327.158851,32.1044922 327.796875,32.1044922 C328.439456,32.1044922 328.949868,31.8527043 329.328125,31.3491211 C329.706382,30.8455378 329.895508,30.140304 329.895508,29.2333984 C329.895508,28.4221965 329.702964,27.7648137 329.317871,27.2612305 C328.932778,26.7576472 328.421227,26.5058594 327.783203,26.5058594 C327.158851,26.5058594 326.655275,26.7542293 326.272461,27.2509766 C325.889647,27.7477238 325.698242,28.4586542 325.698242,29.3837891 Z M337.927734,23.8125 L337.927734,25.6035156 L339.308594,25.6035156 L339.308594,26.5810547 L337.927734,26.5810547 L337.927734,31.1679688 C337.927734,31.4641942 337.989257,31.6863599 338.112305,31.8344727 C338.235352,31.9825854 338.444985,32.0566406 338.741211,32.0566406 C338.887045,32.0566406 339.087564,32.0292971 339.342773,31.9746094 L339.342773,33 C339.010089,33.0911463 338.686525,33.1367188 338.37207,33.1367188 C337.806963,33.1367188 337.380861,32.965822 337.09375,32.6240234 C336.806639,32.2822249 336.663086,31.7968781 336.663086,31.1679688 L336.663086,26.5810547 L335.316406,26.5810547 L335.316406,25.6035156 L336.663086,25.6035156 L336.663086,23.8125 L337.927734,23.8125 Z M344.360352,26.7382812 C344.168944,26.70638 343.96159,26.6904297 343.738281,26.6904297 C342.90885,26.6904297 342.34603,27.0436163 342.049805,27.75 L342.049805,33 L340.785156,33 L340.785156,25.6035156 L342.015625,25.6035156 L342.036133,26.4580078 C342.450848,25.7971972 343.038733,25.4667969 343.799805,25.4667969 C344.0459,25.4667969 344.232747,25.4986976 344.360352,25.5625 L344.360352,26.7382812 Z M347.942383,31.1474609 L349.665039,25.6035156 L351.018555,25.6035156 L348.044922,34.1416016 C347.584633,35.3720765 346.853195,35.9873047 345.850586,35.9873047 L345.611328,35.9667969 L345.139648,35.8779297 L345.139648,34.8525391 L345.481445,34.8798828 C345.909833,34.8798828 346.243651,34.7932951 346.48291,34.6201172 C346.722169,34.4469392 346.91927,34.1302106 347.074219,33.6699219 L347.354492,32.9179688 L344.71582,25.6035156 L346.09668,25.6035156 L347.942383,31.1474609 Z M353.561523,30.1904297 L352.419922,30.1904297 L352.331055,23.046875 L353.657227,23.046875 L353.561523,30.1904297 Z M352.283203,32.3642578 C352.283203,32.1591787 352.345865,31.9871426 352.471191,31.8481445 C352.596518,31.7091464 352.782225,31.6396484 353.02832,31.6396484 C353.274415,31.6396484 353.461262,31.7091464 353.588867,31.8481445 C353.716472,31.9871426 353.780273,32.1591787 353.780273,32.3642578 C353.780273,32.569337 353.716472,32.7390944 353.588867,32.8735352 C353.461262,33.0079759 353.274415,33.0751953 353.02832,33.0751953 C352.782225,33.0751953 352.596518,33.0079759 352.471191,32.8735352 C352.345865,32.7390944 352.283203,32.569337 352.283203,32.3642578 Z" id="The-Cheesecake-Facto" fill="#757575"></path>
            </g>
        </g>
    </g>
</svg>