<?xml version="1.0" encoding="UTF-8"?>
<svg width="246px" height="86px" viewBox="0 0 246 86" version="1.1" xmlns="http://www.w3.org/2000/svg" xmlns:xlink="http://www.w3.org/1999/xlink">
    <!-- Generator: Sketch 49.3 (51167) - http://www.bohemiancoding.com/sketch -->
    <title>logo</title>
    <desc>Created with Sketch.</desc>
    <defs></defs>
    <g id="logo" stroke="none" stroke-width="1" fill="none" fill-rule="evenodd">
        <g transform="translate(0.000000, 8.000000)" fill="#4A90E2">
            <path d="M109.306387,22.2285429 C112.187972,22.2285429 114.623077,23.2533164 116.611776,25.3028942 C118.600476,27.352472 119.59481,29.8586013 119.59481,32.8213573 L119.59481,51.3892216 L112.776447,51.3892216 L112.776447,33.5518962 C112.776447,32.0096397 112.258987,30.7312093 111.224052,29.7165669 C110.189117,28.7019244 108.90054,28.1946108 107.358283,28.1946108 C105.816027,28.1946108 104.517304,28.7019244 103.462076,29.7165669 C102.406848,30.7312093 101.858949,31.9893471 101.818363,33.491018 L101.818363,51.3892216 L95,51.3892216 L95,22.7764471 L101.818363,22.7764471 L101.818363,25.2115768 C103.807063,23.2228776 106.303046,22.2285429 109.306387,22.2285429 Z M151.312375,47.6147705 C148.430791,50.4963551 144.859303,51.9371257 140.597804,51.9371257 C136.336306,51.9371257 132.754672,50.4963551 129.852794,47.6147705 C126.950917,44.7331859 125.5,41.2225756 125.5,37.0828343 C125.5,32.9430931 126.950917,29.4324828 129.852794,26.5508982 C132.754672,23.6693136 136.336306,22.2285429 140.597804,22.2285429 C144.859303,22.2285429 148.440937,23.6693136 151.342814,26.5508982 C154.244692,29.4324828 155.695609,32.9430931 155.695609,37.0828343 C155.695609,41.2225756 154.234546,44.7331859 151.312375,47.6147705 Z M134.50998,43.2315369 C136.173994,44.8955506 138.203248,45.7275449 140.597804,45.7275449 C142.992361,45.7275449 145.011469,44.8955506 146.65519,43.2315369 C148.29891,41.5675233 149.120758,39.5179762 149.120758,37.0828343 C149.120758,34.6476924 148.29891,32.5981454 146.65519,30.9341317 C145.011469,29.2701181 142.992361,28.4381238 140.597804,28.4381238 C138.203248,28.4381238 136.18414,29.2701181 134.540419,30.9341317 C132.896698,32.5981454 132.07485,34.6476924 132.07485,37.0828343 C132.07485,39.5179762 132.886552,41.5675233 134.50998,43.2315369 Z M177.429142,22.7764471 L177.429142,28.3772455 L171.767465,28.3772455 L171.767465,51.3892216 L164.949102,51.3892216 L164.949102,28.3772455 L159.226547,28.3772455 L159.226547,22.7764471 L164.949102,22.7764471 L164.949102,12.488024 L171.767465,12.488024 L171.767465,22.7764471 L177.429142,22.7764471 Z M186.560878,17.6626747 C185.424479,17.6626747 184.460583,17.2771163 183.669162,16.505988 C182.877741,15.7348598 182.482036,14.7811101 182.482036,13.6447106 C182.482036,12.508311 182.877741,11.5545614 183.669162,10.7834331 C184.460583,10.0123049 185.424479,9.62674651 186.560878,9.62674651 C187.656692,9.62674651 188.600295,10.0123049 189.391717,10.7834331 C190.183138,11.5545614 190.578842,12.508311 190.578842,13.6447106 C190.578842,14.7811101 190.183138,15.7348598 189.391717,16.505988 C188.600295,17.2771163 187.656692,17.6626747 186.560878,17.6626747 Z M183.151697,51.3892216 L183.151697,22.7764471 L189.909182,22.7764471 L189.909182,51.3892216 L183.151697,51.3892216 Z M214.686627,22.7764471 L214.686627,28.3772455 L207.442116,28.3772455 L207.442116,51.3892216 L200.684631,51.3892216 L200.684631,28.3772455 L195.87525,28.3772455 L195.87525,22.7764471 L200.684631,22.7764471 L200.684631,14.740519 C200.684631,11.777763 201.547064,9.41368148 203.271956,7.64820359 C204.996848,5.8827257 207.300052,5 210.181637,5 C212.332679,5 213.793742,5.30438817 214.56487,5.91317365 L214.56487,12.1836327 C213.631399,11.4530902 212.515309,11.0878244 211.216567,11.0878244 C210.080167,11.0878244 209.167003,11.4936752 208.477046,12.3053892 C207.787089,13.1171032 207.442116,14.1926081 207.442116,15.5319361 L207.442116,22.7764471 L214.686627,22.7764471 Z M238.185629,22.7764471 L245.43014,22.7764471 L228.140719,66 L221.078842,66 L226.862275,51.2674651 L215.295409,22.7764471 L222.722555,22.7764471 L230.575848,44.2055888 L238.185629,22.7764471 Z" id="notify"></path>
            <g id="ic_app_icon">
                <path d="M35.5,71 C15.8938914,71 0,55.1061086 0,35.5 C0,15.8938914 15.8938914,0 35.5,0 C55.1061086,0 71,15.8938914 71,35.5 C71,55.1061086 55.1061086,71 35.5,71 Z M35.511037,57.9478967 C38.1438379,57.9478967 40.2979477,55.8202413 40.2979477,53.2197737 L30.7241264,53.2197737 C30.7241264,55.8202413 32.8782362,57.9478967 35.511037,57.9478967 Z M51.0684967,43.7635277 L51.0684967,30.7611894 C51.0684967,23.5035206 45.9704369,17.4278826 39.10122,15.8203207 L39.10122,14.2127589 C39.10122,12.2505879 37.497605,10.6666667 35.511037,10.6666667 C33.5244691,10.6666667 31.920854,12.2505879 31.920854,14.2127589 L31.920854,15.8203207 C25.0516372,17.4278826 19.9535773,23.5035206 19.9535773,30.7611894 L19.9535773,43.7635277 L15.1666667,48.4916507 L15.1666667,50.8557122 L55.8554074,50.8557122 L55.8554074,48.4916507 L51.0684967,43.7635277 Z" id="Combined-Shape"></path>
            </g>
        </g>
    </g>
</svg>